# xmcd CD database file
#
# Track frame offsets:
#	150
#	19022
#	31758
#	46622
#	66914
#	82466
#	98546
#	116217
#	130294
#	144733
#	160108
#	174045
#	194679
#	211227
#	234600
#
# Disc length: 3302 seconds
#
# Revision: 0
# Processed by: cddbd v1.4PL0 Copyright (c) Steve Scherf et al.
# Submitted via: CDex 1.40Beta9
#
DISCID=cb0ce40f
DTITLE=Fat Mike and the Blue Cats - The Cat's Half in The Bag
DYEAR=1997
DGENRE=Blues
TTITLE0=What Ya Gonna Do? (When The Music Stops)
TTITLE1=Big Fat Blonde
TTITLE2=Ode To Billy Joe
TTITLE3=I Ain't Drunk (I'm Just Drinkin')
TTITLE4=Blue Cat Boogie
TTITLE5=Shake Your Money Maker
TTITLE6=Hide Away
TTITLE7=Wait and See
TTITLE8=Self Indugence
TTITLE9=Boom Boom
TTITLE10=Can't Hold Out
TTITLE11=Helevator Music
TTITLE12=Moleena
TTITLE13=Cold Shot
TTITLE14=Fire
EXTD=YEAR: 1997 ID3G: 0
EXTT0=
EXTT1=
EXTT2=
EXTT3=
EXTT4=
EXTT5=
EXTT6=
EXTT7=
EXTT8=
EXTT9=
EXTT10=
EXTT11=
EXTT12=
EXTT13=
EXTT14=
PLAYORDER=
